<svg width="24" height="24" viewBox="0 0 24 24" fill="none" xmlns="http://www.w3.org/2000/svg">
<path d="M1.94163 4.33398L1.94163 4.33398C1.97773 4.31812 2.01745 4.31247 2.0378 4.30972C2.0655 4.30597 2.09948 4.30287 2.13925 4.30015C2.2192 4.29469 2.33336 4.29005 2.48936 4.28603C2.80198 4.27799 3.29187 4.27226 4.0322 4.2684C5.5134 4.26068 8.00293 4.26045 12.0951 4.26458L22.0255 4.27468L22.0922 4.27475L22.1454 4.31475L22.2744 4.4116L22.2744 4.41161C22.4086 4.5124 22.5158 4.61783 22.5851 4.75394C22.6548 4.89073 22.6758 5.03787 22.6758 5.20266C22.6758 5.36746 22.6548 5.5146 22.5851 5.65139C22.5158 5.7875 22.4086 5.89292 22.2744 5.99372L22.2744 5.99373L22.1454 6.09057L22.0922 6.13055L22.0256 6.13065L12.1419 6.14445C8.72286 6.14922 6.23835 6.14885 4.59371 6.14299C3.77149 6.14006 3.1586 6.13575 2.74362 6.13002C2.53628 6.12716 2.37736 6.12393 2.26608 6.1203C2.21062 6.11849 2.16556 6.11654 2.13167 6.11438C2.11484 6.11331 2.09915 6.11209 2.08552 6.11062L2.08543 6.11061L1.94163 4.33398ZM1.94163 4.33398C1.53948 4.51067 1.32314 4.96754 1.40467 5.40469L1.94163 4.33398ZM1.94159 11.0972L1.94165 11.0971C1.97539 11.0823 2.01137 11.0764 2.03174 11.0733C2.05767 11.0694 2.08866 11.0662 2.12406 11.0635C2.19519 11.0579 2.29504 11.0533 2.42969 11.0493C2.69962 11.0412 3.11949 11.0355 3.75073 11.0316C5.01383 11.0239 7.12998 11.0236 10.601 11.0278L19.0373 11.0379L19.1039 11.038L19.1572 11.078L19.2861 11.1748C19.2861 11.1748 19.2861 11.1748 19.2861 11.1748C19.4203 11.2756 19.5275 11.381 19.5968 11.5171C19.6665 11.6539 19.6874 11.8011 19.6874 11.9659C19.6874 12.1307 19.6665 12.2778 19.5968 12.4146C19.5275 12.5507 19.4203 12.6561 19.2861 12.7569C19.2861 12.7569 19.2861 12.7569 19.2861 12.7569L19.1572 12.8538L19.1039 12.8937L19.0374 12.8939L10.6478 12.9077C7.75146 12.9124 5.64036 12.912 4.23846 12.9062C3.53763 12.9033 3.01336 12.899 2.65662 12.8932C2.47842 12.8904 2.34093 12.8871 2.24372 12.8835C2.19529 12.8817 2.15535 12.8797 2.12473 12.8775L2.12385 12.8774C2.10253 12.8759 2.06277 12.8731 2.03134 12.8639L2.0313 12.8639C1.87802 12.8194 1.73666 12.7117 1.63141 12.5945C1.52599 12.4772 1.43399 12.3252 1.40467 12.1679L1.94159 11.0972ZM1.94159 11.0972C1.53943 11.2739 1.32314 11.7307 1.40467 12.1679L1.94159 11.0972ZM2.03122 19.6273L2.03116 19.6272C1.87792 19.5826 1.73661 19.4748 1.63137 19.3577L2.03122 19.6273ZM2.03122 19.6273C2.05821 19.6351 2.08833 19.6385 2.10684 19.6403C2.13028 19.6427 2.15886 19.6447 2.19165 19.6466C2.25748 19.6503 2.347 19.6536 2.45978 19.6564C2.68571 19.6622 3.0108 19.6665 3.43864 19.6694C4.29461 19.6753 5.56582 19.6758 7.28615 19.671C9.78193 19.6641 11.0418 19.6604 11.6931 19.6464C12.016 19.6395 12.1998 19.6299 12.3124 19.6143C12.37 19.6062 12.4193 19.5954 12.4635 19.5775C12.5116 19.5581 12.5431 19.5346 12.5623 19.5201L2.03122 19.6273ZM1.40467 5.4047C1.43399 5.56194 1.52599 5.71403 1.63141 5.83133C1.73666 5.94844 1.87801 6.05615 2.0313 6.10067L1.40467 5.4047ZM1.94144 17.8603C1.53937 18.0374 1.32313 18.494 1.40467 18.9311L12.7637 18.7291C12.7637 18.4321 12.6873 18.282 12.4422 18.0979L12.5624 17.938C12.5623 17.938 12.5623 17.938 12.5623 17.938C12.5433 17.9237 12.5117 17.9 12.4635 17.8806C12.4191 17.8627 12.3696 17.8519 12.3118 17.8439C12.1988 17.8283 12.0139 17.8189 11.6882 17.8122C11.0316 17.7986 9.76009 17.796 7.2393 17.7909C5.16593 17.7867 3.88956 17.787 3.11688 17.7948C2.73093 17.7986 2.46817 17.8044 2.29375 17.8126C2.20679 17.8166 2.13872 17.8214 2.08694 17.8273C2.04322 17.8323 1.9872 17.8402 1.94144 17.8603Z" fill="#5A5A5A" stroke="#5A5A5A" stroke-width="0.4"/>
</svg>
