<svg width="24" height="24" viewBox="0 0 24 24" fill="none" xmlns="http://www.w3.org/2000/svg">
<path fill-rule="evenodd" clip-rule="evenodd" d="M3.32958 7.0502C2.99775 7.19905 2.89335 7.66449 3.12747 7.95111C3.3145 8.17998 2.92678 8.16605 9.10925 8.16605C14.7078 8.16605 14.7669 8.16528 14.9095 8.09255C15.1295 7.98029 15.1951 7.86313 15.1951 7.58246C15.1951 7.30179 15.1295 7.18464 14.9095 7.07237C14.7669 6.99961 14.7093 6.99888 9.10153 7.0003C4.47243 7.00147 3.41787 7.01058 3.32958 7.0502ZM13.8139 9.15206C13.0069 9.3268 12.3283 9.69246 11.7379 10.2707C11.0966 10.8987 10.6684 11.6855 10.4814 12.5794C10.3951 12.9918 10.3941 13.9352 10.4796 14.3243C10.7275 15.4519 11.3267 16.3935 12.2069 17.0382C13.6119 18.0673 15.5847 18.1001 17.0066 17.118L17.2447 16.9536L18.1677 17.9011C18.6753 18.4222 19.1355 18.866 19.1904 18.8873C19.4735 18.9971 19.7822 18.8888 19.9132 18.6337C20.1053 18.2593 20.0521 18.1695 18.9826 17.0648C18.487 16.5528 18.0814 16.1218 18.0814 16.107C18.0814 16.0922 18.1433 15.9859 18.219 15.8708C18.8242 14.9507 19.0672 13.6734 18.8442 12.5853C18.5352 11.0783 17.4902 9.83186 16.1065 9.32013C15.439 9.07324 14.4968 9.00419 13.8139 9.15206ZM3.32958 10.2599C2.99775 10.4088 2.89335 10.8742 3.12747 11.1608C3.30957 11.3837 3.1954 11.3758 6.21789 11.3758C8.89828 11.3758 8.98693 11.3736 9.11941 11.304C9.51074 11.0984 9.52104 10.5151 9.13729 10.2913L8.99762 10.2098L6.21761 10.2106C3.98538 10.2113 3.41631 10.221 3.32958 10.2599ZM15.4318 10.3324C16.544 10.623 17.3935 11.4947 17.6986 12.6583C17.8107 13.0857 17.8121 13.8188 17.7017 14.239C17.317 15.7027 16.1125 16.6645 14.6639 16.6645C12.7093 16.6645 11.2478 14.8742 11.5836 12.8912C11.7232 12.0667 12.2215 11.2681 12.8939 10.7917C13.1442 10.6143 13.6153 10.3992 13.9251 10.3208C14.3475 10.2139 14.9975 10.2189 15.4318 10.3324ZM3.32958 13.4696C2.99775 13.6185 2.89335 14.0839 3.12747 14.3706C3.30957 14.5935 3.1954 14.5855 6.21789 14.5855C8.89828 14.5855 8.98693 14.5833 9.11941 14.5137C9.51074 14.3081 9.52104 13.7249 9.13729 13.501L8.99762 13.4195L6.21761 13.4204C3.98538 13.421 3.41631 13.4307 3.32958 13.4696ZM3.32958 16.6794C2.99775 16.8282 2.89335 17.2937 3.12747 17.5803C3.30957 17.8032 3.1954 17.7952 6.21789 17.7952C8.89828 17.7952 8.98693 17.793 9.11941 17.7234C9.51074 17.5178 9.52104 16.9346 9.13729 16.7107L8.99762 16.6293L6.21761 16.6301C3.98538 16.6308 3.41631 16.6405 3.32958 16.6794ZM3.32958 19.8889C3.09532 19.9944 2.96021 20.2741 3.01043 20.5498C3.04149 20.7203 3.21835 20.9219 3.37892 20.9696C3.46823 20.9962 5.3399 21.0049 9.41115 20.9974C15.3096 20.9867 15.314 20.9866 15.4117 20.9115C15.5975 20.7686 15.6555 20.652 15.6555 20.4214C15.6555 20.1907 15.5975 20.0741 15.4117 19.9312C15.3139 19.8561 15.3121 19.856 9.37574 19.8481C4.49297 19.8417 3.4184 19.8489 3.32958 19.8889Z" fill="black"/>
</svg>
