<svg width="40" height="40" viewBox="0 0 40 40" fill="none" xmlns="http://www.w3.org/2000/svg">
<path fill-rule="evenodd" clip-rule="evenodd" d="M20 1.74846e-06C8.9543 2.7141e-06 -2.7141e-06 8.95431 -1.74846e-06 20C-7.8281e-07 31.0457 8.95431 40 20 40C31.0457 40 40 31.0457 40 20C40 8.95431 31.0457 7.8281e-07 20 1.74846e-06ZM11.4 21.8856L11.4 21.8857L23.85 29.0737C24.6376 29.5284 25.0314 29.7557 25.3545 29.7218C25.6364 29.6922 25.8924 29.5443 26.059 29.315C26.25 29.0522 26.25 28.5975 26.25 27.688L26.25 13.312C26.25 12.4026 26.25 11.9479 26.059 11.685C25.8924 11.4557 25.6364 11.3079 25.3545 11.2782C25.0314 11.2443 24.6376 11.4716 23.85 11.9264L11.4 19.1144C10.6124 19.5691 10.2186 19.7964 10.0865 20.0933C9.97118 20.3522 9.97118 20.6478 10.0865 20.9068C10.2186 21.2036 10.6124 21.4309 11.4 21.8856Z" fill="white" fill-opacity="0.95"/>
</svg>
