<svg width="24" height="24" viewBox="0 0 24 24" fill="none" xmlns="http://www.w3.org/2000/svg">
<path fill-rule="evenodd" clip-rule="evenodd" d="M17.0915 7.01736C16.4779 7.12694 15.6818 7.55452 14.8485 8.22205C13.2375 9.51257 11.0345 11.9793 8.95685 14.8192L8.54051 15.3882L8.13943 15.3809C7.58675 15.3708 7.20424 15.4499 6.68524 15.6817C6.20911 15.8943 5.6746 16.3568 5.36468 16.8245C5.00938 17.3606 4.8782 17.8306 4.80531 18.8287C4.7326 19.8242 4.63575 20.1948 4.34372 20.5954C4.01484 21.0465 4 21.0715 4 21.1758C4 21.3087 4.07532 21.4647 4.1722 21.5325C4.28983 21.6148 4.70008 21.7637 5.03415 21.8453C6.51685 22.2075 8.24974 21.9208 9.41577 21.1205C10.0137 20.7101 10.5075 20.0486 10.7426 19.3429C10.8873 18.9084 10.9283 18.6158 10.9129 18.1254L10.8992 17.6917L11.2804 17.3947C13.8221 15.4137 16.2712 13.1228 17.5565 11.5239C18.2618 10.6464 18.7064 9.8846 18.9118 9.20129C19.0226 8.83289 19.0299 8.32911 18.9288 8.03627C18.7114 7.40649 18.196 7.02915 17.5166 7.00222C17.3634 6.99615 17.1721 7.00296 17.0915 7.01736ZM17.6962 7.91335C17.9578 8.00559 18.1324 8.26948 18.1324 8.57255C18.1324 8.90255 17.9277 9.43253 17.5888 9.9799C16.8377 11.1931 15.1323 12.9916 12.9254 14.8976L12.5122 15.2545L11.7271 14.4687C11.1385 13.8796 10.9483 13.6723 10.9674 13.6406C11.0158 13.5605 11.823 12.5744 12.2113 12.121C12.9709 11.2343 13.8592 10.2886 14.4639 9.72299C15.9665 8.31738 17.0778 7.69522 17.6962 7.91335ZM11.7299 15.9034C11.4968 16.1038 10.5967 16.8139 10.5761 16.8137C10.5635 16.8135 10.5017 16.7336 10.4389 16.6361C10.2654 16.3668 9.94893 16.0453 9.672 15.8571C9.53514 15.7641 9.42668 15.6787 9.43102 15.6673C9.43536 15.656 9.65001 15.3622 9.90803 15.0145L10.3772 14.3823L11.0995 15.1033L11.8219 15.8243L11.7299 15.9034ZM8.58155 16.3135C9.11709 16.4505 9.54918 16.8007 9.82089 17.318C10.3271 18.2816 9.92469 19.6761 8.93686 20.3813C8.53001 20.6717 7.84324 20.9397 7.21057 21.055C6.77302 21.1347 5.87849 21.1292 5.48481 21.0445C5.3258 21.0103 5.19075 20.9773 5.18466 20.9712C5.17856 20.9651 5.21949 20.8752 5.27564 20.7715C5.50225 20.3528 5.61127 19.8674 5.67035 19.0137C5.7116 18.4179 5.74951 18.1421 5.82299 17.9039C6.06819 17.109 6.69966 16.5173 7.51843 16.3152C7.82363 16.2398 8.29076 16.2391 8.58155 16.3135Z" fill="black"/>
</svg>
