<svg width="97" height="45" viewBox="0 0 97 45" fill="none" xmlns="http://www.w3.org/2000/svg">
<rect y="1" width="97" height="42" rx="3" fill="#EBEBEB"/>
<path d="M26.2419 37V6.6H36.3119V9.298H29.2819V20.356H35.9319V23.054H29.2819V34.302H36.3119V37H26.2419ZM49.4026 37.266C47.3506 37.266 45.8686 36.8733 44.9566 36.088C44.07 35.2773 43.614 33.9473 43.5886 32.098C43.5126 27.8167 43.4746 23.5733 43.4746 19.368C43.5 15.1373 43.538 10.8813 43.5886 6.6H46.5906C46.54 10.8813 46.5146 15.1753 46.5146 19.482C46.54 23.7633 46.5526 28.0447 46.5526 32.326C46.5526 33.162 46.768 33.7573 47.1986 34.112C47.6293 34.4667 48.364 34.644 49.4026 34.644C50.4413 34.644 51.1633 34.4667 51.5686 34.112C51.9993 33.7573 52.2146 33.162 52.2146 32.326C52.2146 28.0447 52.2273 23.7633 52.2526 19.482C52.278 15.1753 52.2653 10.8813 52.2146 6.6H55.2166C55.2673 10.8813 55.2926 15.1373 55.2926 19.368C55.2926 23.5733 55.2673 27.8167 55.2166 32.098C55.1913 33.9473 54.7226 35.2773 53.8106 36.088C52.924 36.8733 51.4546 37.266 49.4026 37.266ZM63.5665 37V6.6H66.6065V34.302H73.6365V37H63.5665Z" fill="#353535"/>
</svg>
