<svg width="165" height="165" viewBox="0 0 165 165" fill="none" xmlns="http://www.w3.org/2000/svg">
<path fill-rule="evenodd" clip-rule="evenodd" d="M82.5 0C36.9365 0 0 36.9365 0 82.5C0 128.063 36.9365 165 82.5 165C128.063 165 165 128.063 165 82.5C165 36.9365 128.063 0 82.5 0ZM71.9121 106.679V107.318H84.6958V106.679C84.7671 102.276 85.2285 98.6001 86.0811 95.6526C86.9331 92.7053 88.3003 90.1663 90.1826 88.0354C92.0645 85.8694 94.5684 83.8096 97.6934 81.8564C100.818 79.939 103.481 77.7373 105.683 75.2515C107.92 72.7656 109.625 69.9424 110.797 66.782C112.004 63.6213 112.608 60.0881 112.608 56.1819C112.608 50.6421 111.33 45.7061 108.773 41.3735C106.251 37.0413 102.665 33.6321 98.0127 31.1462C93.3965 28.6604 87.9629 27.4177 81.7129 27.4177C75.9604 27.4177 70.7222 28.554 65.9995 30.8267C61.312 33.0994 57.5298 36.3843 54.6533 40.6812C51.8125 44.978 50.25 50.1448 49.9658 56.1819H63.3892C63.6733 51.9915 64.7207 48.6001 66.5317 46.0078C68.3433 43.4155 70.5981 41.5156 73.2969 40.3083C75.9956 39.1008 78.8013 38.4971 81.7129 38.4971C85.0513 38.4971 88.0874 39.1897 90.8218 40.5745C93.5562 41.9595 95.7402 43.9304 97.3735 46.4873C99.0073 49.0439 99.8237 52.0625 99.8237 55.5427C99.8237 58.3479 99.3267 60.9048 98.3325 63.2131C97.3735 65.5212 96.0596 67.5632 94.3906 69.3389C92.7217 71.0789 90.8394 72.5881 88.7441 73.8665C85.2642 75.9617 82.2812 78.2522 79.7954 80.738C77.3096 83.2236 75.3921 86.4729 74.0425 90.4858C72.6934 94.4985 71.9829 99.8962 71.9121 106.679ZM71.9653 136.029C73.8472 137.911 76.1021 138.852 78.73 138.852C80.5059 138.852 82.1035 138.426 83.5239 137.574C84.98 136.686 86.1343 135.514 86.9863 134.058C87.8745 132.602 88.3184 131.004 88.3184 129.264C88.3184 126.636 87.377 124.381 85.4951 122.499C83.6128 120.617 81.3579 119.676 78.73 119.676C76.1021 119.676 73.8472 120.617 71.9653 122.499C70.083 124.381 69.1421 126.636 69.1421 129.264C69.1421 131.892 70.083 134.147 71.9653 136.029Z" fill="#5A5A5A"/>
</svg>
