<svg width="40" height="40" viewBox="0 0 40 40" fill="none" xmlns="http://www.w3.org/2000/svg">
<path fill-rule="evenodd" clip-rule="evenodd" d="M20 40C31.0457 40 40 31.0457 40 20C40 8.9543 31.0457 0 20 0C8.9543 0 0 8.9543 0 20C0 31.0457 8.9543 40 20 40ZM29.6 19.1144L29.6 19.1144L17.15 11.9263C16.3624 11.4716 15.9686 11.2443 15.6455 11.2782C15.3636 11.3079 15.1076 11.4557 14.941 11.685C14.75 11.9478 14.75 12.4026 14.75 13.312L14.75 27.688C14.75 28.5974 14.75 29.0522 14.941 29.315C15.1076 29.5443 15.3636 29.6921 15.6455 29.7218C15.9686 29.7557 16.3624 29.5284 17.15 29.0737L29.6 21.8856C30.3876 21.4309 30.7814 21.2036 30.9135 20.9067C31.0288 20.6478 31.0288 20.3522 30.9135 20.0933C30.7814 19.7964 30.3876 19.5691 29.6 19.1144Z" fill="white" fill-opacity="0.95"/>
</svg>
